<svg xmlns="http://www.w3.org/2000/svg" viewBox="0 0 1179.27 165.21">
    <defs>
        <style>.cls-1{fill:#00b7f1;}.cls-2{fill:#d1d3d4;}.cls-3{fill:#fff;}</style>
    </defs>
    <g id="Layer_2" data-name="Layer 2">
        <g id="Layer_1-2" data-name="Layer 1">
            <path class="cls-1"
                  d="M979.62,130.49l49-49a79.44,79.44,0,0,1,56.53-23.41h94.1v49.07h-94.1a30.7,30.7,0,0,0-21.83,9l-49,49Z"/>
            <path class="cls-1"
                  d="M849.39,107.13V58.06h94.09a30.7,30.7,0,0,0,21.83-9l49-49L1049,34.7l-49,49a79.48,79.48,0,0,1-56.53,23.41Z"/>
            <path class="cls-2" d="M4,46.93H0l0-2.51H10.72v2.51h-4v12.3H4Z"/>
            <path class="cls-2"
                  d="M12.21,44.42h4L20,55l3.84-10.55h4V59.23h-2.6V48.43L21.37,58H18.69l-3.86-9.6v10.8H12.21Z"/>
            <path class="cls-3"
                  d="M780.55,58.18a46.79,46.79,0,0,0-33.2-13.75H652.27A7.55,7.55,0,0,0,644.72,52V78.85H747.35a12.53,12.53,0,0,1,8.86,21.39l-30.53,30.52H634.44L612.89,152.3a7.55,7.55,0,0,0,5.34,12.89H740l40.6-40.61A47,47,0,0,0,780.55,58.18Z"/>
            <path class="cls-3"
                  d="M419.44,62.73V0H385V62.73a12.49,12.49,0,0,1-3.66,8.85l-29.17,29.17,24.35,24.35,29.16-29.17A46.81,46.81,0,0,0,419.44,62.73Z"/>
            <path class="cls-3"
                  d="M346.69,44.62H212.53a46.75,46.75,0,0,0-33.11,13.75L142.19,95.1l-32,32a12.53,12.53,0,0,1-21.38-8.86V52a7.55,7.55,0,0,0-7.55-7.55H54.37v73.83a47,47,0,0,0,80.16,33.2l47.05-47,22.18-21.68a12.56,12.56,0,0,1,8.77-3.67h118L352,57.51A7.55,7.55,0,0,0,346.69,44.62Z"/>
            <path class="cls-3"
                  d="M603.2,44.42H508a46.81,46.81,0,0,0-33.11,13.75L389.13,144l19,19a7.54,7.54,0,0,0,10.67,0l80.47-80.44A12.52,12.52,0,0,1,508,78.85h79l21.54-21.54A7.55,7.55,0,0,0,603.2,44.42Z"/>
            <path class="cls-3"
                  d="M579.74,130.76H496.86L475.32,152.3a7.55,7.55,0,0,0,5.33,12.89h82.89l21.54-21.55A7.55,7.55,0,0,0,579.74,130.76Z"/>
        </g>
    </g>
</svg>